<svg viewBox="0 0 400 400" xmlns="http://www.w3.org/2000/svg"><g stroke="none" stroke-width="1" fill="none" fill-rule="evenodd"><g fill-rule="nonzero"><g fill="#E535AB"><polygon transform="translate(120.405487, 159.000102) rotate(-149.999272) translate(-120.405487, -159.000102) " points="119.665474 -8.87725016 138.12831 -9.75740829 121.1455 326.877454 102.682663 327.757612"></polygon><rect x="16.9142857" y="273.67347" width="366.057143" height="16.9387755"></rect><polygon transform="translate(120.449029, 323.048878) rotate(-149.999272) translate(-120.449029, -323.048878) " points="18.0088428 319.230085 223.769373 309.421094 222.889215 326.867671 17.1286847 336.676662"></polygon><polygon transform="translate(279.505486, 77.049898) rotate(-149.999272) translate(-279.505486, -77.049898) " points="177.0653 73.2311055 382.82583 63.4221141 381.945672 80.8686914 176.185142 90.6776828"></polygon><polygon transform="translate(120.499771, 76.985408) rotate(-120.000728) translate(-120.499771, -76.985408) " points="116.680978 -25.4547782 134.127555 -26.3349364 124.318564 179.425593 106.871987 180.305752"></polygon><polygon transform="translate(279.635656, 159.003163) rotate(-120.000728) translate(-279.635656, -159.003163) " points="111.758304 158.26315 448.393167 141.28034 447.513008 159.743177 110.878146 176.725987"></polygon><rect x="31.4285714" y="105.612245" width="18.9714286" height="188.77551"></rect><rect x="349.6" y="105.612245" width="18.9714286" height="188.77551"></rect><polygon transform="translate(279.504686, 322.954694) rotate(-120.000728) translate(-279.504686, -322.954694) " points="276.150532 233.861075 291.390012 233.092262 282.858841 412.048312 267.619361 412.817125"></polygon><path d="M393.714286,299.897959 C382.742857,316.938776 358.285714,322.755102 339.2,312.959184 C320.114286,303.163265 313.6,281.32653 324.571429,264.285714 C335.542857,247.244898 360,241.428571 379.085714,251.22449 C398.285714,261.122449 404.8,282.857143 393.714286,299.897959"></path><path d="M75.3142857,135.714286 C64.3428571,152.755102 39.8857143,158.571429 20.8,148.77551 C1.71428571,138.979592 -4.8,117.142857 6.17142857,100.102041 C17.1428571,83.0612245 41.6,77.2448979 60.6857143,87.0408163 C79.7714286,96.9387759 86.2857143,118.67347 75.3142857,135.714286"></path><path d="M6.28571429,299.897959 C-4.68571429,282.857143 1.82857143,261.122449 20.9142857,251.22449 C40,241.428571 64.3428571,247.244898 75.4285714,264.285714 C86.4,281.32653 79.8857143,303.061224 60.8,312.959184 C41.6,322.755102 17.2571429,316.938776 6.28571429,299.897959"></path><path d="M324.685714,135.714286 C313.714286,118.67347 320.228571,96.9387759 339.314286,87.0408163 C358.4,77.2448979 382.742857,83.0612245 393.828571,100.102041 C404.8,117.142857 398.285714,138.877551 379.2,148.77551 C360.114286,158.571429 335.657143,152.755102 324.685714,135.714286"></path><path d="M200,399.795919 C177.942857,399.795919 160.114286,383.877551 160.114286,364.183673 C160.114286,344.489796 177.942857,328.571429 200,328.571429 C222.057143,328.571429 239.885714,344.489796 239.885714,364.183673 C239.885714,383.77551 222.057143,399.795919 200,399.795919"></path><path d="M200,71.4285714 C177.942857,71.4285714 160.114286,55.5102041 160.114286,35.8163265 C160.114286,16.122449 177.942857,0.204081633 200,0.204081633 C222.057143,0.204081633 239.885714,16.122449 239.885714,35.8163265 C239.885714,55.5102041 222.057143,71.4285714 200,71.4285714"></path></g><g id="nuxt" transform="translate(55.000000, 51.000000)"><path d="M262.421753,224 L27.578247,224 C19.2939757,224 12.578247,217.284271 12.578247,209 C12.578247,206.107636 13.414473,203.276952 14.986203,200.8489 L132.407956,19.4525369 C136.909684,12.498143 146.196706,10.5098646 153.1511,15.0115928 C154.928203,16.1619496 156.441687,17.6754339 157.592044,19.4525369 L275.013797,200.8489 C279.515525,207.803294 277.527247,217.090316 270.572853,221.592044 C268.144801,223.163774 265.314117,224 262.421753,224 Z" fill="#00C58E"></path><path d="M262.407242,224 L77.5927584,224 C69.3084871,224 62.5927584,217.284271 62.5927584,209 C62.5927584,206.105382 63.4302871,203.27259 65.0043147,200.843341 L157.411556,58.2281648 C161.916355,51.2757593 171.204254,49.2915817 178.156659,53.79638 C179.929507,54.9450936 181.43973,56.4553168 182.588444,58.2281648 L274.995685,200.843341 C279.500484,207.795746 277.516306,217.083645 270.563901,221.588444 C268.134651,223.162471 265.30186,224 262.407242,224 Z" fill="#108775"></path><path d="M212.385032,224 L77.6149683,224 C69.330697,224 62.6149683,217.284271 62.6149683,209 C62.6149683,206.101936 63.4544908,203.265922 65.0320339,200.834845 L132.417066,96.9909641 C136.926557,90.0416013 146.215793,88.0636944 153.165155,92.5731852 C154.931501,93.7193797 156.43674,95.2246181 157.582934,96.9909641 L224.967966,200.834845 C229.477457,207.784207 227.49955,217.073443 220.550187,221.582934 C218.11911,223.160477 215.283096,224 212.385032,224 Z" fill="#2F495E"></path></g></g></g></svg>